<?xml version="1.0" standalone="no"?>
<!DOCTYPE svg PUBLIC "-//W3C//DTD SVG 20010904//EN"
 "http://www.w3.org/TR/2001/REC-SVG-20010904/DTD/svg10.dtd">
<svg version="1.0" xmlns="http://www.w3.org/2000/svg"
 width="500.000000pt" height="500.000000pt" viewBox="0 0 500.000000 500.000000"
 preserveAspectRatio="xMidYMid meet">
<metadata>
Created by potrace 1.14, written by Peter Selinger 2001-2017
</metadata>
<g transform="translate(0.000000,500.000000) scale(0.100000,-0.100000)"
fill="#000000" stroke="none">
<path d="M2349 3745 c-2 -1 -25 -6 -50 -9 -187 -25 -351 -132 -422 -275 -29
-60 -32 -74 -32 -161 0 -77 4 -104 23 -145 l22 -50 -30 -83 c-26 -73 -30 -95
-30 -191 0 -175 52 -296 175 -409 125 -114 273 -172 460 -180 101 -4 134 -1
205 17 83 21 193 68 256 110 l31 21 -3 -48 c-7 -95 -46 -170 -128 -244 -143
-130 -366 -156 -575 -66 -116 49 -284 197 -357 313 -16 25 -33 44 -38 42 -6
-2 -10 -54 -11 -116 l0 -113 58 -40 c163 -111 368 -179 513 -172 155 8 258 30
349 76 177 90 284 238 290 399 2 57 12 80 55 129 35 40 107 199 124 275 15 69
17 270 3 323 -14 52 -19 69 -39 122 -32 83 -103 187 -177 260 -56 56 -67 71
-66 99 1 25 -5 35 -25 45 -36 19 -192 54 -280 65 -72 8 -294 13 -301 6z m146
-26 c188 -6 310 -74 411 -226 19 -29 39 -53 43 -53 5 0 8 25 6 55 -1 30 0 55
4 55 14 0 110 -107 148 -165 44 -66 86 -164 103 -240 30 -133 11 -321 -45
-442 -33 -74 -105 -184 -115 -178 -4 3 -11 17 -15 32 -8 34 -45 98 -78 135
-20 23 -23 34 -17 66 17 93 -9 236 -61 332 -68 128 -180 221 -322 270 -73 25
-94 28 -187 25 -137 -3 -248 -44 -342 -124 -46 -39 -53 -35 -63 39 -19 142 72
293 221 368 56 28 78 35 149 48 16 3 31 7 33 9 2 2 15 2 30 0 15 -2 59 -4 97
-6z m-25 -362 c106 -22 195 -65 265 -129 63 -58 80 -101 72 -190 -6 -68 -34
-118 -83 -148 -33 -21 -36 -21 -82 -5 -26 9 -104 36 -173 60 -266 92 -338 127
-418 202 l-56 51 25 22 c41 36 108 80 148 97 95 40 219 57 302 40z m-534 -308
c34 -38 138 -107 214 -142 41 -19 163 -67 270 -107 219 -81 255 -98 289 -135
13 -14 39 -28 61 -31 58 -9 147 -105 169 -182 11 -38 4 -46 -99 -101 -362
-194 -832 -45 -961 305 -15 42 -22 88 -24 159 -3 86 0 111 22 178 14 42 29 77
33 77 4 0 15 -10 26 -21z"/>
</g>
</svg>
